<?xml version="1.0" standalone="no"?><!DOCTYPE svg PUBLIC "-//W3C//DTD SVG 1.1//EN" "http://www.w3.org/Graphics/SVG/1.1/DTD/svg11.dtd"><svg class="icon" width="200px" height="200.00px" viewBox="0 0 1024 1024" version="1.1" xmlns="http://www.w3.org/2000/svg"><path d="M 776.348 243.757 h -87.0956 L 637.774 192 c -11.9652 -12.2435 -28.3826 -18.9217 -45.3565 -18.9217 h -116.313 c -16.9739 0 -33.3913 6.67826 -45.3565 18.6435 l -51.7565 51.7565 h -100.174 c -23.3739 0 -42.2957 18.9217 -42.2957 42.2957 v 346.157 c 0 23.3739 18.9217 42.2957 42.2957 42.2957 H 776.348 c 23.3739 0 42.2957 -18.9217 42.2957 -42.2957 V 286.052 c 0 -23.3739 -18.9217 -42.2957 -42.2957 -42.2957 Z m -233.739 371.478 c -92.3826 4.73043 -168.348 -71.513 -163.617 -163.896 c 4.17391 -79.3044 68.4522 -143.583 147.757 -147.478 c 92.6609 -4.45217 168.348 71.513 163.617 163.896 c -4.17391 79.3044 -68.4522 143.583 -147.757 147.478 Z" fill="#8a8a8a" /><path d="M 541.774 365.913 c -57.6 -4.45217 -105.461 43.1304 -101.009 101.009 c 3.61739 45.3565 40.3478 82.087 85.7043 85.7043 c 57.6 4.45217 105.461 -43.1304 101.009 -101.009 c -3.61739 -45.3565 -40.3478 -82.087 -85.7043 -85.7043 Z M 197.565 526.748 c -2.22609 1.66956 -1.11304 21.9826 -1.3913 25.6 c -0.556522 9.73913 -0.834783 19.7565 -0.556522 29.7739 c 0.278261 28.1043 6.95652 57.0435 21.1478 81.8087 c 15.5826 27.5478 38.6783 43.1304 64.2783 60.3826 c 21.4261 14.4696 44.2435 26.9913 68.4522 36.1739 c 21.7043 8.34783 45.3565 15.0261 68.4522 16.1391 c 4.17391 0.278261 8.62609 0 11.9652 -2.22609 c 9.73913 -6.95652 5.28696 -27.8261 6.67826 -38.4 c 1.3913 -9.18261 5.56522 -22.8174 16.6957 -13.6348 l 128.835 106.852 c 6.95652 5.84348 3.61739 17.2522 -5.56522 18.087 c -73.4609 8.34783 -301.078 18.6435 -408.765 -149.704 c -45.3565 -78.7478 20.8696 -164.73 29.7739 -170.852 Z M 851.757 512.278 s 4.17391 95.1652 1.3913 116.87 c -7.23478 55.0957 -141.078 117.983 -220.661 143.304 c -20.8696 6.67826 -29.4957 31.4435 -17.2522 49.5304 c 0.278261 0.278261 0.278261 0.556522 0.556521 0.834782 c 8.06956 11.9652 23.0957 16.9739 37.0087 12.5217 c 45.3565 -14.7478 90.713 -31.4435 133.009 -53.9826 c 39.2348 -20.8696 80.4174 -46.1913 103.235 -85.9826 c 31.7217 -55.6522 21.7043 -126.887 -24.7652 -170.852 c -4.45217 -3.61739 -9.18261 -7.51304 -12.5217 -12.2435 Z" fill="#8a8a8a" /></svg>