<?xml version="1.0" standalone="no"?><!DOCTYPE svg PUBLIC "-//W3C//DTD SVG 1.1//EN" "http://www.w3.org/Graphics/SVG/1.1/DTD/svg11.dtd"><svg class="icon" width="200px" height="200.00px" viewBox="0 0 1024 1024" version="1.1" xmlns="http://www.w3.org/2000/svg"><path d="M 557.44 512 l 244.335 -244.336 c 15.733 -15.732 15.733 -41.133 0 -56.777 c -15.732 -15.733 -41.132 -15.733 -56.777 0 L 500.662 455.223 L 267.664 222.225 c -15.732 -15.733 -41.133 -15.733 -56.777 0 c -15.733 15.732 -15.733 41.132 0 56.777 L 443.797 512 l -232.91 232.998 c -15.733 15.732 -15.733 41.133 0 56.777 c 15.732 15.733 41.133 15.733 56.777 0 l 232.998 -232.998 l 244.336 244.336 c 15.732 15.733 41.133 15.733 56.777 0 c 15.733 -15.732 15.733 -41.133 0 -56.777 L 557.44 512 Z" fill="#333333" /></svg>