<?xml version="1.0" standalone="no"?><!DOCTYPE svg PUBLIC "-//W3C//DTD SVG 1.1//EN" "http://www.w3.org/Graphics/SVG/1.1/DTD/svg11.dtd"><svg class="icon" width="200px" height="200.00px" viewBox="0 0 1024 1024" version="1.1" xmlns="http://www.w3.org/2000/svg"><path d="M637.832421 647.867434c0 3.182482-2.483666 5.765307-5.549617 5.765307L404.558168 653.632741c-3.069021 0-5.55371-2.581802-5.55371-5.765307L399.004458 307.513746c0-3.185552 2.484689-5.767354 5.55371-5.767354l227.724635 0c3.065951 0 5.549617 2.581802 5.549617 5.767354L637.832421 647.867434z" fill="#323232" /><path d="M575.024429 44.326555c-7.038588-2.174526-132.332216 73.484641-139.724883 98.116645-7.391644 24.632004-4.576413 141.997038-4.576413 141.997038l4.576413 0 163.308964 0L598.60851 91.728144C598.60851 91.728144 582.066088 46.499034 575.024429 44.326555zM468.851038 174.297698c-29.094811-15.274892-21.589575-31.824823-21.589575-31.824823s20.440355 19.693528 28.422471 19.761066c29.797851 0.252757 106.726-71.952752 106.726-71.952752C578.659362 103.011118 497.943802 189.574636 468.851038 174.297698z" fill="#323232" /><path d="M656.761291 654.78396 382.386308 654.78396c-3.565345 0-6.457327 3.558036-6.457327 7.940856l0 276.011264c0 4.384867 2.890958 7.940856 6.457327 7.940856l274.374983 0c3.565345 0 6.457327-3.555989 6.457327-7.940856L663.218618 662.724817C663.217594 658.341996 660.326636 654.78396 656.761291 654.78396zM632.161025 918.430616c0 4.15974-2.197128 7.52744-4.905931 7.52744l-13.483635 0c-2.709826 0-4.906954-3.367701-4.906954-7.52744L608.864505 684.916235c0-4.157693 2.196105-7.531534 4.906954-7.531534l13.483635 0c2.707779 0 4.905931 3.373841 4.905931 7.531534L632.161025 918.430616z" fill="#323232" /></svg>