<?xml version="1.0" standalone="no"?><!DOCTYPE svg PUBLIC "-//W3C//DTD SVG 1.1//EN" "http://www.w3.org/Graphics/SVG/1.1/DTD/svg11.dtd"><svg class="icon" width="200px" height="200.00px" viewBox="0 0 1024 1024" version="1.1" xmlns="http://www.w3.org/2000/svg"><path d="M511 18c-249.3 5.4-389.9 157.4-389.9 338.1v7.6c3.9 158.8 3.9 281.7 90.6 427.2 82.4 138.4 210.9 205.8 299.5 212.1 88.6-6.3 217.2-73.7 299.6-212.1 86.6-145.6 86.6-268.4 90.6-427.2v-7.6C901.4 181 760.6 23.4 511 18z m-61.9 626.6c16.2-21.4 19.2-21.4 61.8-21.4 42.6 0 47.4-0.5 59.2 16.3 21.2 30-1.5 26.6-16.2 26.6h-81.2c-14.8-0.1-39.9-0.1-23.6-21.5zM188.6 471.8c0-37.3 54.6-68.2 118.3-68.2 63.7 0 125.6 27.3 125.6 67.3 0 32.8-49.1 69.1-125.6 69.1-103.8 0-118.3-47.2-118.3-68.2z m444.2 338.9c-33.8 39.9-72.5 49.5-121.5 50.1 1.7 0 3.5 0.1 5.2 0.1H506c1.8 0 3.5 0 5.2-0.1-49-0.6-87.7-10.2-121.5-50.1-34.5-40.7 15.8-31.3 121.5-31 105.8-0.3 156-9.7 121.6 31zM834 471.8c0 21-14.5 68.2-118.3 68.2-76.4 0-125.6-36.3-125.6-69.1 0-40.1 61.9-67.3 125.6-67.3 63.7 0 118.3 30.9 118.3 68.2z m0 0" fill="#323232" /></svg>