<?xml version="1.0" standalone="no"?><!DOCTYPE svg PUBLIC "-//W3C//DTD SVG 1.1//EN" "http://www.w3.org/Graphics/SVG/1.1/DTD/svg11.dtd"><svg class="icon" width="200px" height="200.00px" viewBox="0 0 1024 1024" version="1.1" xmlns="http://www.w3.org/2000/svg"><path d="M 668.184 304.129 c -51.289 0 -93.02 41.723 -93.02 93.016 c 0 51.297 41.73 93.027 93.02 93.027 s 93.023 -41.73 93.023 -93.027 c 0 -51.293 -41.734 -93.016 -93.023 -93.016 Z m 0 0 M 916.23 750.067 l -74.125 -74.125 c -8.664 -8.673 -20.184 -13.445 -32.438 -13.445 c -12.25 0 -23.77 4.777 -32.43 13.445 L 675.805 777.368 l 70.543 70.55 h 46.398 c 60.09 0 110.301 -41.789 123.484 -97.851 Z m 0 0" fill="#8a8a8a" /><path d="M 638.848 740.411 l 101.426 -101.435 c 18.543 -18.534 43.184 -28.741 69.395 -28.741 c 26.215 0 50.859 10.207 69.391 28.741 l 40.66 40.668 v -376.66 c 0 -70.129 -56.844 -126.985 -126.973 -126.985 h -561.77 C 160.855 176 104 232.852 104 302.985 v 310.372 l 125.562 -125.563 c 20.922 -20.914 48.747 -32.441 78.34 -32.441 c 29.594 0 57.407 11.527 78.332 32.441 l 250.34 250.348 l 2.274 2.269 Z M 520.344 397.145 c 0 -81.52 66.324 -147.836 147.84 -147.836 c 81.52 0 147.84 66.316 147.84 147.836 c 0 81.523 -66.324 147.848 -147.84 147.848 s -147.84 -66.325 -147.84 -147.848 Z m 0 0" fill="#8a8a8a" /><path d="M 601.891 777.372 L 349.273 524.758 c -11.054 -11.05 -25.742 -17.144 -41.375 -17.144 c -15.632 0 -30.328 6.094 -41.375 17.144 L 104 687.27 v 33.669 c 0 70.129 56.852 126.979 126.973 126.979 h 300.371 l 70.547 -70.546 Z m 0 0" fill="#8a8a8a" /><path d="M 605.25 847.918 h 67.184 l -78.008 -78.01 l -96.259 78.01 H 605.25 Z m 0 0" fill="#8a8a8a" /></svg>